HIERARCHY
ROOT Hips
{
  OFFSET -69.4423 88.0299 51.6846
  CHANNELS 6 Xposition Yposition Zposition Zrotation Xrotation Yrotation
  JOINT Spine
  {
    OFFSET 12.0259 -0.162853 1.93176e-005
    CHANNELS 3 Zrotation Xrotation Yrotation
    JOINT Spine1
    {
      OFFSET 15.3169 -0.0121909 0
      CHANNELS 3 Zrotation Xrotation Yrotation
      JOINT Spine2
      {
        OFFSET 15.3176 -0.0121922 0
        CHANNELS 3 Zrotation Xrotation Yrotation
        JOINT Neck
        {
          OFFSET 19.9142 1.56236 0
          CHANNELS 3 Zrotation Xrotation Yrotation
          JOINT Head
          {
            OFFSET 6.92646 0 0
            CHANNELS 3 Zrotation Xrotation Yrotation
            End Site
            {
              OFFSET 20.7666 0 0
            }
          }
          JOINT LeftShoulder
          {
            OFFSET -4.94072 -1.14703 8.14416
            CHANNELS 3 Zrotation Xrotation Yrotation
            JOINT LeftArm
            {
              OFFSET 14.108 0 -2.74767e-005
              CHANNELS 3 Zrotation Xrotation Yrotation
              JOINT LeftForeArm
              {
                OFFSET 28.5802 -0.0783412 -0.0284884
                CHANNELS 3 Zrotation Xrotation Yrotation
                JOINT LeftHand
                {
                  OFFSET 27.092 0 0
                  CHANNELS 3 Zrotation Xrotation Yrotation
                  End Site
                  {
                    OFFSET 9.55928 -0.186424 0.145352
                  }
                }
              }
            }
          }
          JOINT RightShoulder
          {
            OFFSET -7.15748 -1.33027 -6.24935
            CHANNELS 3 Zrotation Xrotation Yrotation
            JOINT RightArm
            {
              OFFSET 14.108 0 1.82997e-005
              CHANNELS 3 Zrotation Xrotation Yrotation
              JOINT RightForeArm
              {
                OFFSET 28.5802 -0.0707221 2.30684e-005
                CHANNELS 3 Zrotation Xrotation Yrotation
                JOINT RightHand
                {
                  OFFSET 27.092 0 -1.30073e-005
                  CHANNELS 3 Zrotation Xrotation Yrotation
                  End Site
                  {
                    OFFSET 9.55929 -0.186417 -0.145354
                  }
                }
              }
            }
          }
        }
      }
    }
  }
  JOINT LeftUpLeg
  {
    OFFSET 0.00499725 -0.534999 8.837
    CHANNELS 3 Zrotation Xrotation Yrotation
    JOINT LeftLeg
    {
      OFFSET 39.9035 -0.00124594 0.000252775
      CHANNELS 3 Zrotation Xrotation Yrotation
      JOINT LeftFoot
      {
        OFFSET 39.6689 0 0
        CHANNELS 3 Zrotation Xrotation Yrotation
        JOINT LeftToe
        {
          OFFSET 10.1624 13.6296 0
          CHANNELS 3 Zrotation Xrotation Yrotation
          End Site
          {
            OFFSET 8.38147 0 0
          }
        }
      }
    }
  }
  JOINT RightUpLeg
  {
    OFFSET 0.00499725 -0.535 -8.837
    CHANNELS 3 Zrotation Xrotation Yrotation
    JOINT RightLeg
    {
      OFFSET 39.9036 -0.000268477 0.000106433
      CHANNELS 3 Zrotation Xrotation Yrotation
      JOINT RightFoot
      {
        OFFSET 39.6689 1.17892e-005 0
        CHANNELS 3 Zrotation Xrotation Yrotation
        JOINT RightToe
        {
          OFFSET 10.1624 13.6296 0
          CHANNELS 3 Zrotation Xrotation Yrotation
          End Site
          {
            OFFSET 8.38147 0 0
          }
        }
      }
    }
  }
}
MOTION
Frames:	18
Frame Time:	0.0333333
97.9005 87.0403 -45.9907 -71.2754 80.1032 164.628 1.39022 0.196664 0.0847702 2.7802 0.39582 0.164888 2.78019 0.39581 0.164876 -15.7391 -2.68491 -13.5083 51.8965 0.236619 15.9556 -166.714 -5.35813 -95.9049 -13.4435 8.37291 81.8397 -18.4395 1.67729 -12.0547 6.27985 -80.2422 8.70202 -166.657 -7.18508 72.469 -18.4219 -3.07311 -79.2206 -33.4637 -5.55356 19.7295 175.997 83.4454 -176.074 -7.41206 -16.9603 -174.309 -20.1074 1.13418 -1.06868 -10.4981 37.0526 8.38179 90 -4.77083e-015 -6.36111e-015 -14.4022 14.9615 -179.628 -41.8081 -0.291048 -0.262581 11.5855 -25.7848 0.766227 90 -1.27222e-014 9.54166e-015 
99.3451 87.0735 -45.3955 -53.4121 83.9033 146.388 1.45952 0.0452315 0.265157 2.91883 0.0976833 0.529216 2.91881 0.0976746 0.529207 -15.9752 -2.63489 -13.5667 52.5128 0.241453 15.9746 -166.429 -5.35066 -95.8962 -11.3461 7.60246 81.1555 -17.7412 1.58054 -11.647 5.42906 -78.1966 7.73831 -166.386 -7.16894 72.3315 -13.4727 -1.81808 -77.7951 -31.2073 -4.90305 18.5904 176.987 80.4282 -177.098 -4.85975 -14.2181 -174.384 -20.1235 0.983987 -0.971169 -0.0386081 34.8861 2.67892 90 -5.64548e-014 -5.08889e-014 -14.2117 16.7681 -179.881 -41.9993 -0.317737 -0.212059 11.7492 -26.8017 1.06026 90 -6.36111e-015 -3.18055e-015 
101.32 87.26 -45.5971 -40.2251 85.5944 135.209 1.31881 -0.688216 -0.018996 2.63767 -1.37621 -0.0220142 2.63766 -1.37621 -0.0220245 -15.4391 -2.81445 -13.4383 52.4131 -0.254832 15.8525 -166.997 -5.35193 -95.7944 -11.5598 7.94084 80.7071 -18.0928 1.62017 -11.7872 5.59164 -78.2851 7.96317 -166.917 -7.18449 72.4395 -8.3565 -0.534389 -76.8444 -29.5987 -4.47307 17.7788 177.077 79.4978 -177.216 -4.61 -14.1379 -177.991 -18.8723 1.03197 -1.00918 0.561443 31.1896 2.08451 90 -9.54166e-015 -3.18055e-015 -14.1262 17.1079 176.584 -42.7057 -0.241537 -0.181781 12.8679 -26.4712 1.32953 90 3.18055e-015 -3.18055e-015 
102.665 87.3795 -45.715 24.8332 86.7453 70.5766 1.21907 -0.677791 -0.124475 2.43698 -1.35759 -0.234364 2.43697 -1.3576 -0.234372 -15.5339 -3.15105 -13.4672 53.0815 -0.425159 16.7828 -166.956 -5.67137 -95.7338 -12.6531 7.67999 79.203 -17.9105 1.57376 -11.6393 3.71677 -77.0868 6.56852 -166.916 -7.62817 72.5189 -3.19961 -0.0166153 -77.0636 -29.3828 -4.44034 17.6728 177.091 78.2979 -177.227 -4.40426 -11.4571 -179.154 -19.0783 1.03486 -0.967169 2.24344 29.5533 1.28921 90 -8.74653e-015 -6.36111e-015 -14.8009 17.4714 175.588 -42.7831 -0.210038 -0.159289 14.1268 -22.751 1.08921 90 -3.10104e-014 -1.27222e-014 
103.604 87.6459 -45.8728 65.8104 83.9721 28.5242 1.17553 -0.713286 0.241463 2.35433 -1.42098 0.497748 2.35432 -1.42098 0.497734 -15.3377 -3.32725 -13.8718 52.2892 -0.639125 17.3253 -167.205 -5.85961 -96.1871 -11.9685 6.91099 78.6512 -18.5362 1.66445 -12.0016 2.33193 -74.3191 4.89749 -167.2 -7.88589 72.1228 -0.68242 -0.42286 -76.1662 -29.8056 -4.56789 17.8743 177.375 76.8034 -177.509 -3.9402 -9.51749 -178.589 -18.9241 1.02829 -0.991093 1.6025 27.9331 1.67621 90 3.18055e-015 6.36111e-015 -15.7516 16.0329 176.54 -42.0689 -0.292813 -0.0692735 12.3445 -16.5831 -0.242505 90 -3.97569e-015 1.27222e-014 
104.047 87.8506 -45.8909 75.4891 79.3106 17.1309 1.35418 -0.578173 0.530515 2.71387 -1.14317 1.07479 2.71387 -1.14318 1.07478 -15.4946 -3.57573 -13.6068 51.5139 -1.00787 17.8136 -167.066 -6.04887 -95.9961 -13.4943 7.18975 77.522 -20.486 1.94481 -13.0248 4.02397 -77.6215 6.41626 -167.044 -8.11961 72.4763 -0.280083 -0.973338 -76.1911 -30.0207 -4.62356 17.965 177.323 76.7084 -177.458 -2.42181 -7.65757 -177.326 -18.7453 0.99366 -1.01342 3.2416 24.5015 1.24826 90 -4.29375e-014 -1.90833e-014 -15.9497 13.7796 178.469 -41.5911 -0.385151 0.0530799 11.3017 -6.81971 -0.989282 90 6.75868e-015 -0 
105.396 87.9666 -46.1979 83.0275 75.7289 11.2989 1.2256 -0.68 0.192821 2.45372 -1.35525 0.400306 2.45372 -1.35526 0.400297 -15.287 -3.69453 -13.5261 51.0185 -0.960378 18.3251 -167.31 -6.10074 -96.0077 -14.6021 7.79556 76.4801 -22.2524 2.21774 -13.9329 4.33732 -80.8828 6.92493 -167.266 -8.20789 72.6265 -0.706166 -1.63344 -76.0782 -29.5267 -4.47223 17.6961 177.025 78.2151 -177.161 -2.09031 -6.32038 -179.889 -16.9711 1.01675 -1.0677 3.42226 21.3208 1.04864 90 3.97569e-015 9.54166e-015 -17.3465 9.43605 175.558 -42.71 -0.336753 0.125956 11.3679 -3.94629 -1.12526 90 -7.45443e-015 3.18055e-015 
106.104 88.087 -46.3661 86.0585 71.2959 8.93351 1.19225 -0.686933 0.0510927 2.38537 -1.33817 0.116306 2.38536 -1.33818 0.116302 -15.0953 -3.644 -13.7716 50.689 -0.627111 18.7792 -167.478 -6.03278 -96.3152 -13.7896 6.92383 75.1957 -23.0481 2.3545 -14.3339 6.39495 -82.8621 9.10476 -167.488 -8.21584 72.3691 -2.08838 -2.66527 -76.1188 -29.0795 -4.3292 17.4391 176.59 80.37 -176.694 -0.880446 -4.32942 178.939 -15.016 1.02541 -1.11768 3.18378 18.6649 1.02641 90 1.11319e-014 3.18055e-015 -18.8242 4.87529 174.123 -44.5383 -0.288523 0.14028 11.6798 -3.51484 -1.16189 90 -1.43125e-014 1.59028e-015 
106.7 88.1173 -46.5961 87.4796 66.8514 8.05978 1.1875 -0.667829 -0.0670355 2.3745 -1.33643 -0.120026 2.3745 -1.33644 -0.120037 -15.4388 -3.40449 -13.6184 51.4059 -0.558343 18.2265 -167.075 -5.80373 -96.2265 -12.7473 6.77374 74.4771 -23.8773 2.50281 -14.7469 7.96704 -83.5813 10.6791 -167.099 -8.00126 72.5024 -2.63858 -3.12455 -76.5493 -28.419 -4.12926 17.0668 176.01 82.7918 -176.033 0.0476013 -3.02342 177.753 -13.929 1.02812 -1.15694 3.19809 15.2615 0.913063 90 2.38542e-015 1.90833e-014 -19.8952 0.558457 172.998 -46.8313 -0.276408 0.177607 11.4095 0.872767 -1.21942 90 1.66979e-014 1.27222e-014 
107.037 88.1597 -46.7911 88.2864 62.3399 7.13339 1.20401 -0.530019 -0.100389 2.40727 -1.06152 -0.189484 2.40725 -1.06154 -0.189491 -15.3531 -3.40826 -13.5529 51.4645 -0.763226 18.0863 -167.116 -5.72525 -96.1674 -12.7893 6.32275 73.3023 -23.8631 2.49566 -14.7229 10.8055 -83.7237 13.3006 -167.186 -7.98752 72.5444 -2.31573 -3.19714 -77.577 -27.5881 -3.90354 16.6333 175.074 84.274 -175.104 0.822357 -1.28073 177.433 -13.4602 1.03039 -1.17438 3.12724 12.4632 0.853879 90 5.56597e-015 9.54166e-015 -20.5012 -4.14324 172.437 -48.8246 -0.271566 0.200756 11.3182 5.97129 -1.26275 90 -6.36111e-015 -0 
107.199 88.1985 -47.0276 89.1538 57.9898 5.89035 1.16714 -0.450513 -0.0632339 2.33389 -0.901869 -0.117129 2.33388 -0.901885 -0.117136 -15.3202 -3.29262 -13.4367 51.53 -0.810228 17.7739 -167.096 -5.55627 -96.1067 -12.8175 6.25127 72.4674 -24.2823 2.56688 -14.9289 15.9594 -85.5578 18.4824 -167.194 -7.83053 72.6204 -2.36545 -3.66768 -78.6467 -26.751 -3.67562 16.181 173.708 85.5746 -173.72 1.09181 0.469055 177.51 -13.6467 1.02756 -1.1803 3.55786 9.8956 0.751678 90 -4.77083e-015 -3.18055e-015 -20.7123 -8.41173 172.324 -50.0356 -0.268008 0.215542 11.3288 11.2982 -1.37791 90 1.59028e-015 9.54166e-015 
107.369 88.1239 -47.1661 90.1099 53.6822 5.37979 1.03227 -0.438936 -0.0964198 2.06389 -0.879068 -0.184779 2.06388 -0.879079 -0.184784 -15.3885 -2.96117 -13.7571 51.9047 -0.489964 17.386 -167 -5.32269 -96.4792 -11.574 5.89437 72.522 -24.3709 2.58923 -14.9799 16.0409 -85.8784 18.659 -167.121 -7.58468 72.2146 -2.09414 -4.07093 -79.3733 -25.4798 -3.35773 15.5118 166.295 87.977 -166.281 1.28092 1.45929 176.628 -13.7037 1.02456 -1.19715 3.72017 6.77275 0.628459 90 -1.59028e-015 6.36111e-015 -21.1913 -12.2463 171.083 -50.6656 -0.266321 0.223646 11.2098 14.9008 -1.45341 90 1.74931e-014 1.59028e-014 
107.313 88.0381 -47.4937 91.1511 49.4502 4.34381 0.94838 -0.409342 -0.071119 1.89634 -0.819345 -0.135283 1.89633 -0.819358 -0.1353 -15.7632 -2.75846 -13.6107 52.136 -0.294905 17.1658 -166.569 -5.1647 -96.3161 -11.2499 5.36852 72.5077 -23.9562 2.52111 -14.7771 15.0496 -85.1008 17.4493 -166.712 -7.42433 72.3085 -1.78847 -4.31049 -80.41 -24.5396 -3.12224 14.9991 157.384 88.8519 -157.348 1.24626 2.47446 176.536 -13.6193 1.01879 -1.24087 3.83861 3.49802 0.537147 90 -2.38542e-015 2.54444e-014 -21.3368 -14.9672 170.919 -50.3199 -0.27318 0.232406 12.1512 16.6884 -1.83443 90 1.11319e-014 1.43125e-014 
106.915 87.9858 -47.85 91.4958 45.1841 2.95021 0.917266 -0.339775 0.168407 1.8356 -0.676322 0.342396 1.83559 -0.676324 0.342378 -15.8355 -2.74978 -13.477 51.8623 -0.505939 16.9713 -166.478 -5.12837 -96.1707 -11.1635 4.95857 73.0476 -23.6743 2.48031 -14.6674 16.4234 -85.548 18.7822 -166.643 -7.37835 72.3912 -2.12074 -5.14611 -81.1233 -23.7804 -2.93526 14.5818 150.478 89.1836 -150.419 1.5051 3.40551 177.601 -13.7929 1.0054 -1.2718 4.30827 0.791252 0.490561 90 8.74653e-015 1.59028e-014 -20.1404 -17.0759 172.351 -48.7576 -0.309079 0.24537 12.8889 19.0073 -2.27674 90 -6.36111e-015 -4.77083e-015 
106.857 87.7738 -47.8418 92.4348 41.7522 3.83648 0.783343 -0.494398 -0.0934155 1.56598 -0.989645 -0.179894 1.56597 -0.989643 -0.17991 -16.0283 -2.61121 -13.1599 51.5764 -0.62367 16.4463 -166.26 -4.97164 -95.862 -12.2099 5.21618 73.8207 -23.8938 2.5217 -14.8043 22.2742 -86.7349 24.7298 -166.389 -7.16695 72.6589 -0.925689 -5.27272 -81.6124 -22.3361 -2.6075 13.7822 10.8623 88.0449 -10.7477 1.81534 3.67331 175.574 -13.2752 1.00359 -1.30827 4.41835 -2.08776 0.420947 90 -1.43125e-014 9.54166e-015 -20.5555 -18.1635 170.321 -47.1159 -0.306428 0.263493 13.1369 18.5485 -2.24027 90 1.11319e-014 7.55382e-015 
106.523 87.7346 -48.7036 93.8871 37.6448 1.70046 0.566188 -0.488162 0.148222 1.13373 -0.974322 0.301471 1.13373 -0.974359 0.301458 -16.0368 -2.67502 -13.0995 51.2702 -0.619868 16.7075 -166.317 -5.04789 -95.8294 -12.1707 5.41047 75.1545 -24.3615 2.62745 -15.1101 18.3008 -86.1185 20.6983 -166.414 -7.22561 72.7017 -0.630818 -5.62051 -82.496 -21.6076 -2.47893 13.4485 9.22999 87.0751 -9.12882 -0.33653 4.38107 176.9 -15.6178 1.00303 -1.3247 5.16398 -5.51472 0.445824 90 0 -0 -20.0736 -17.899 172.777 -44.021 -0.357481 0.268739 12.5115 16.7884 -1.90271 90 3.97569e-015 5.36719e-015 
106.199 87.7884 -49.4134 94.5069 34.4425 0.591259 0.499802 -0.68828 0.372454 1.0042 -1.37285 0.751164 1.00419 -1.37288 0.751152 -16.1467 -2.45594 -13.5263 51.1691 0.0810142 17.1441 -166.241 -4.99221 -96.3012 -12.9436 5.32941 76.5977 -24.7359 2.71199 -15.3852 20.2559 -86.6008 22.6166 -166.333 -7.18222 72.2146 -0.980094 -6.10167 -82.9427 -21.1546 -2.39355 13.2362 7.73206 86.3809 -7.6461 -1.55535 4.46832 177.764 -17.1225 1.00408 -1.34878 5.38293 -9.03528 0.42554 90 -3.18055e-014 -2.54444e-014 -19.2745 -16.7681 174.77 -42.0803 -0.397181 0.271074 12.3069 15.0935 -1.75535 90 -7.95139e-015 -9.54166e-015 
105.697 87.7096 -49.5656 94.65 30.4061 1.47752 0.610854 -0.613582 0.1699 1.22368 -1.22504 0.346579 1.22368 -1.22503 0.346567 -16.3209 -2.56244 -13.1857 50.6921 -0.421903 16.8747 -166.059 -5.042 -95.9057 -14.4425 4.84588 77.6814 -25.2136 2.81609 -15.702 22.145 -86.9395 24.616 -166.109 -7.21978 72.5776 0.0126412 -5.47812 -83.5907 -20.4113 -2.24268 12.8214 5.38138 84.746 -5.27263 -0.634387 5.05843 176.426 -16.6714 1.00522 -1.37596 5.15709 -12.7249 0.420891 90 -1.66979e-014 -1.27222e-014 -19.4169 -14.987 174.282 -41.8316 -0.400797 0.253141 12.0603 12.3515 -1.5449 90 7.95139e-015 7.95139e-015 
